<?xml version="1.0" standalone="no"?><!DOCTYPE svg PUBLIC "-//W3C//DTD SVG 1.1//EN" "http://www.w3.org/Graphics/SVG/1.1/DTD/svg11.dtd"><svg t="1669705619941" class="icon" viewBox="0 0 1024 1024" version="1.1" xmlns="http://www.w3.org/2000/svg" p-id="14545" xmlns:xlink="http://www.w3.org/1999/xlink" width="200" height="200"><path d="M512.213333 1024C794.865778 1024 1024 794.823111 1024 511.971556 1024 229.233778 794.865778 0 512.213333 0S0.440889 229.233778 0.440889 511.971556C0.440889 794.823111 229.560889 1024 512.213333 1024z m0-969.315556c252.444444 0 457.088 204.728889 457.088 457.287112 0 252.586667-204.643556 457.329778-457.088 457.329777-252.444444 0-457.116444-204.743111-457.116444-457.329777 0-252.572444 204.657778-457.287111 457.116444-457.287112z" fill="#ffffff" p-id="14546"></path><path d="M512.213333 952.291556c243.029333 0 440.078222-197.12 440.078223-440.32 0-243.143111-197.048889-440.263111-440.078223-440.263112-243.057778 0-440.092444 197.12-440.092444 440.263112-0.014222 243.2 197.020444 440.32 440.092444 440.32z m0-716.472889l276.039111 276.152889-276.039111 276.181333-276.067555-276.181333 276.067555-276.152889z" fill="#ffffff" p-id="14547"></path></svg>