<?xml version="1.0" standalone="no"?><!DOCTYPE svg PUBLIC "-//W3C//DTD SVG 1.1//EN" "http://www.w3.org/Graphics/SVG/1.1/DTD/svg11.dtd"><svg t="1670217707112" class="icon" viewBox="0 0 1024 1024" version="1.1" xmlns="http://www.w3.org/2000/svg" p-id="3981" xmlns:xlink="http://www.w3.org/1999/xlink" width="200" height="200"><path d="M954.732403 353.61369c-0.352017-0.662079-0.728594-1.311879-1.11745-1.944282L832.04106 138.365324c-6.640234-11.653411-19.023262-18.84623-32.431643-18.84623L224.25039 119.519094c-13.426801 0-25.815969 7.212262-32.450063 18.883069L69.606311 353.357863c-6.567579 11.556197-6.282077 25.730011 0.401136 37.219693 1.598404 2.740414 3.524267 5.231141 5.717212 7.436366l407.445736 492.918409c7.096628 8.578376 17.643845 13.548574 28.774347 13.548574 11.130502 0 21.677719-4.970198 28.774347-13.542434l407.706679-493.216191c4.204765-4.356214 7.375991-9.715269 9.138124-15.656585C960.39538 372.721887 959.483614 362.477568 954.732403 353.61369zM575.348794 194.176444l47.50699 129.775692L401.052119 323.952136l47.50699-129.775692L575.348794 194.176444zM618.110713 398.609487 511.957021 755.776096 405.803329 398.609487 618.110713 398.609487zM327.923588 398.609487l86.934978 292.50082L173.079964 398.609487 327.923588 398.609487zM695.990454 398.609487l154.837484 0L609.066733 691.074491 695.990454 398.609487zM851.888084 323.952136l-149.525502 0-47.50699-129.775692 123.062803 0L851.888084 323.952136zM245.971088 194.176444l123.0802 0-47.50699 129.775692L172.198897 323.952136 245.971088 194.176444z" p-id="3982" fill="#d4237a"></path></svg>