<?xml version="1.0" standalone="no"?><!DOCTYPE svg PUBLIC "-//W3C//DTD SVG 1.1//EN" "http://www.w3.org/Graphics/SVG/1.1/DTD/svg11.dtd"><svg t="1669690798574" class="icon" viewBox="0 0 1024 1024" version="1.1" xmlns="http://www.w3.org/2000/svg" p-id="2710" xmlns:xlink="http://www.w3.org/1999/xlink" width="200" height="200"><path d="M512 1024c282.752 0 512-229.248 512-512S794.752 0 512 0 0 229.248 0 512s229.248 512 512 512z m0-85.333333C276.352 938.666667 85.333333 747.648 85.333333 512S276.352 85.333333 512 85.333333s426.666667 191.018667 426.666667 426.666667-191.018667 426.666667-426.666667 426.666667zM291.541333 384c-23.552 0-39.594667 19.114667-39.594666 42.666667s16.042667 42.666667 39.594666 42.666666h470.272c37.845333 0 56.96-58.368 30.464-85.333333l-149.546666-156.16a42.666667 42.666667 0 0 0-60.885334 59.818667L660.096 384H291.541333z m470.272 257.706667a42.666667 42.666667 0 1 0 0-85.333334H291.541333c-37.802667 0-56.917333 45.653333-30.421333 72.618667l149.546667 152.192a42.666667 42.666667 0 0 0 60.842666-59.776L393.301333 641.706667h368.512z" fill="#ffffff" p-id="2711"></path></svg>