<?xml version="1.0" standalone="no"?><!DOCTYPE svg PUBLIC "-//W3C//DTD SVG 1.1//EN" "http://www.w3.org/Graphics/SVG/1.1/DTD/svg11.dtd"><svg t="1677632426990" class="icon" viewBox="0 0 1024 1024" version="1.1" xmlns="http://www.w3.org/2000/svg" p-id="6825" xmlns:xlink="http://www.w3.org/1999/xlink" width="200" height="200"><path d="M774.070857 1023.853714c-24.722286 0-48.420571-7.826286-68.534857-22.966857l-38.180571-29.184a35.254857 35.254857 0 0 0-43.227429 0l-38.180571 29.257143c-40.228571 30.72-96.329143 30.72-136.557715 0l-38.107428-29.257143a35.254857 35.254857 0 0 0-43.300572 0l-38.107428 29.257143c-40.228571 30.72-96.402286 30.72-136.557715 0l-38.180571-29.257143a35.254857 35.254857 0 0 0-43.227429 0l-50.029714 38.034286a38.765714 38.765714 0 0 1-54.125714-7.314286 39.862857 39.862857 0 0 1 7.241143-54.710857l49.956571-38.034286c40.228571-30.793143 96.402286-30.793143 136.557714 0l38.180572 29.184a35.254857 35.254857 0 0 0 43.300571 0l38.034286-29.257143c40.228571-30.72 96.402286-30.72 136.630857 0l38.107429 29.257143a35.254857 35.254857 0 0 0 43.300571 0l38.107429-29.257143c40.228571-30.72 96.402286-30.72 136.557714 0l38.180571 29.257143a35.254857 35.254857 0 0 0 43.300572 0l38.107428-29.257143c40.228571-30.72 96.402286-30.72 136.557715 0l38.107428 29.257143a39.350857 39.350857 0 0 1 7.241143 54.784 38.253714 38.253714 0 0 1-54.125714 7.314286l-38.107429-29.257143a35.254857 35.254857 0 0 0-43.300571 0l-38.107429 29.257143c-19.017143 15.067429-42.788571 23.405714-67.510857 22.893714z m0-886.564571c-24.722286 0-48.420571-7.826286-68.534857-22.966857l-38.180571-29.184a35.254857 35.254857 0 0 0-43.227429 0l-38.180571 29.257143c-40.228571 30.72-96.329143 30.72-136.557715 0l-38.107428-29.257143a35.254857 35.254857 0 0 0-43.300572 0l-38.107428 29.257143c-40.228571 30.72-96.402286 30.72-136.557715 0l-38.180571-29.257143a35.254857 35.254857 0 0 0-43.227429 0l-50.029714 38.034285a38.765714 38.765714 0 0 1-54.125714-7.314285 39.936 39.936 0 0 1 7.241143-54.710857l49.956571-38.034286c40.228571-30.793143 96.402286-30.793143 136.557714 0l38.180572 29.184a35.254857 35.254857 0 0 0 43.300571 0l38.034286-29.257143c40.228571-30.72 96.402286-30.72 136.630857 0l38.107429 29.257143a35.254857 35.254857 0 0 0 43.300571 0l38.107429-29.257143c40.228571-30.72 96.402286-30.72 136.557714 0l38.180571 29.257143a35.254857 35.254857 0 0 0 43.300572 0l38.107428-29.257143c40.228571-30.72 96.402286-30.72 136.557715 0l38.107428 29.257143a39.350857 39.350857 0 0 1 7.241143 54.710857 38.253714 38.253714 0 0 1-54.125714 7.314286l-38.107429-29.184a35.254857 35.254857 0 0 0-43.300571 0l-38.107429 29.257143c-19.017143 15.067429-42.788571 23.405714-67.510857 22.893714zM253.586286 354.230857a34.962286 34.962286 0 0 1-13.385143-6.217143l-38.180572-29.257143a112.566857 112.566857 0 0 0-136.557714 0l-49.956571 38.034286a39.350857 39.350857 0 0 0-7.241143 54.857143 38.253714 38.253714 0 0 0 54.125714 7.314286l50.029714-38.107429a35.254857 35.254857 0 0 1 43.227429 0l38.180571 29.257143c17.993143 13.458286 38.619429 21.284571 60.269715 22.893714V354.230857h-0.512z m754.907428-6.217143l-38.034285-29.257143a112.566857 112.566857 0 0 0-136.630858 0l-38.107428 29.257143a35.547429 35.547429 0 0 1-26.843429 6.729143v78.262857h5.12c24.795429 0 48.493714-8.338286 68.608-22.966857l38.107429-29.257143a35.254857 35.254857 0 0 1 43.300571 0l38.107429 29.257143a38.765714 38.765714 0 0 0 54.125714-7.314286 39.497143 39.497143 0 0 0-7.753143-54.710857zM253.586286 649.362286a34.962286 34.962286 0 0 1-13.385143-6.217143l-38.180572-29.257143a112.566857 112.566857 0 0 0-136.557714 0l-49.956571 38.107429a39.350857 39.350857 0 0 0-7.241143 54.857142 38.253714 38.253714 0 0 0 54.125714 7.241143l50.029714-38.034285a35.254857 35.254857 0 0 1 43.227429 0l38.180571 29.184c17.993143 13.531429 38.619429 21.357714 60.269715 22.893714V649.508571h-0.512z m754.907428-6.217143l-38.034285-29.257143a112.566857 112.566857 0 0 0-136.630858 0l-38.107428 29.257143a35.547429 35.547429 0 0 1-26.843429 6.802286v78.262857h5.12c24.795429 0 48.493714-8.411429 68.608-22.966857l38.107429-29.257143a35.254857 35.254857 0 0 1 43.300571 0l38.107429 29.257143a38.765714 38.765714 0 0 0 54.125714-7.314286 39.936 39.936 0 0 0-7.753143-54.784zM443.757714 344.868571h81.92v35.986286h-81.92v67.291429h81.92v35.986285h-81.92v67.291429h81.92v35.913143h-81.92v67.291428h81.92v35.986286h-81.92v72.484572h143.213715v-495.908572H443.757714v77.677714zM369.517714 197.266286h291.108572v640.950857h-291.108572V197.266286z" fill="#d4237a" p-id="6826"></path></svg>