<?xml version="1.0" standalone="no"?><!DOCTYPE svg PUBLIC "-//W3C//DTD SVG 1.1//EN" "http://www.w3.org/Graphics/SVG/1.1/DTD/svg11.dtd"><svg t="1669861538046" class="icon" viewBox="0 0 1024 1024" version="1.1" xmlns="http://www.w3.org/2000/svg" p-id="1221" xmlns:xlink="http://www.w3.org/1999/xlink" width="200" height="200"><path d="M384 554.666667H298.666667a213.333333 213.333333 0 0 1 0-426.624L725.333333 128v85.333333L298.666667 213.376a128 128 0 0 0-37.162667 250.453333A128 128 0 0 1 384 298.666667l554.666667 0.042666v85.333334H384a42.666667 42.666667 0 1 0 0 85.333333h341.333333a213.333333 213.333333 0 0 1 0 426.666667l-426.666666 0.042666v-85.333333h426.666666a128 128 0 0 0 37.162667-250.538667A128 128 0 0 1 640 725.333333H85.333333v-85.333333h554.666667a42.666667 42.666667 0 0 0 0-85.333333H384z m-277.333333 256h85.333333a21.333333 21.333333 0 0 1 21.333333 21.333333v42.666667a21.333333 21.333333 0 0 1-21.333333 21.333333h-85.333333a21.333333 21.333333 0 0 1-21.333334-21.333333v-42.666667a21.333333 21.333333 0 0 1 21.333334-21.333333z m725.333333-682.666667h85.333333a21.333333 21.333333 0 0 1 21.333334 21.333333v42.666667a21.333333 21.333333 0 0 1-21.333334 21.333333h-85.333333a21.333333 21.333333 0 0 1-21.333333-21.333333v-42.666667a21.333333 21.333333 0 0 1 21.333333-21.333333z" p-id="1222" fill="#ffffff"></path></svg>